# xmcd
#
# Track frame offsets:
#	150
#	9836
#	22178
#	37327
#	47634
#	74662
#	85309
#	96506
#	116970
#	148408
#	168366
#	197923
#	210092
#	237832
#	250965
#
# Disc length: 3514 seconds
#
# Revision: 1
# Processed by: cddbd v1.5.2PL0 Copyright (c) Steve Scherf et al.
# Submitted via: EZCDAudioConverter 2.1.7.1
#
DISCID=e00db80f
DTITLE=V/A - Bad Seeds: Roots and Collaborations
DYEAR=1900
DGENRE=MOJO
TTITLE0=The Saints - (This) Perfect Day
TTITLE1=Johnny Cash - Folsom Prison Blues
TTITLE2=John Lee Hooker - Tupelo Blues
TTITLE3=Karen Dalton - Katie Cruel
TTITLE4=Tim Rose - Long Time Man
TTITLE5=Scott Walker - The Big Hurt
TTITLE6=Current 93 - All The Pretty Little Horses
TTITLE7=Einstürzende Neubauten - Blume
TTITLE8=Martin Gore - Loverman
TTITLE9=Lydia Lunch and Nick Cave - Done Dun
TTITLE10=Beasts Of Bourbon - Cocksucker Blues
TTITLE11=Golden Gate Quartet - Wade In The Water
TTITLE12=Peggy Seeger - Henry Lee
TTITLE13=Mississippi John Hurt - Stack O'Lee
TTITLE14=Hank Williams - I'm So Lonesome I Could Cry
EXTD=
EXTT0=
EXTT1=
EXTT2=
EXTT3=
EXTT4=
EXTT5=
EXTT6=
EXTT7=
EXTT8=
EXTT9=
EXTT10=
EXTT11=
EXTT12=
EXTT13=
EXTT14=
PLAYORDER=
